<svg width="2400" height="1200" viewBox="0 0 2400 1200" fill="none" xmlns="http://www.w3.org/2000/svg">
<path d="M915 600C915 837.571 744.42 1025 540 1025C335.58 1025 165 837.571 165 600C165 362.429 335.58 175 540 175C744.42 175 915 362.429 915 600Z" stroke="#BA000D" stroke-width="50"/>
<path d="M675 960C675 971.81 666.226 987.593 640.881 1001.85C616.318 1015.67 580.702 1025 540 1025C499.298 1025 463.682 1015.67 439.119 1001.85C413.774 987.593 405 971.81 405 960C405 948.19 413.774 932.407 439.119 918.15C463.682 904.333 499.298 895 540 895C580.702 895 616.318 904.333 640.881 918.15C666.226 932.407 675 948.19 675 960Z" stroke="#BA000D" stroke-width="50"/>
<path d="M674 960C695.5 1061 813 1023 873 1001C921 983.4 998.333 1021 1031 1042" stroke="#BA000D" stroke-width="50"/>
<path d="M829 968C850.5 1069 968 1031 1028 1009C1076 991.4 1153.33 1029 1186 1050" stroke="#BA000D" stroke-width="50"/>
<path d="M1008 968C1029.5 1069 1147 1031 1207 1009C1255 991.4 1332.33 1029 1365 1050" stroke="#BA000D" stroke-width="50"/>
<path d="M1187 968C1208.5 1069 1326 1031 1386 1009C1434 991.4 1511.33 1029 1544 1050" stroke="#BA000D" stroke-width="50"/>
<path d="M1366 968C1387.5 1069 1505 1031 1565 1009C1613 991.4 1690.33 1029 1723 1050" stroke="#BA000D" stroke-width="50"/>
<path d="M1545 968C1566.5 1069 1684 1031 1744 1009C1792 991.4 1869.33 1029 1902 1050" stroke="#BA000D" stroke-width="50"/>
<path d="M1724 968C1745.5 1069 1863 1031 1923 1009C1971 991.4 2048.33 1029 2081 1050" stroke="#BA000D" stroke-width="50"/>
<path d="M1902 968C1923.5 1069 2041 1031 2101 1009C2149 991.4 2226.33 1029 2259 1050" stroke="#BA000D" stroke-width="50"/>
<rect x="365" y="400" width="350" height="400" stroke="#BA000D" stroke-width="50"/>
<path d="M460 507V707" stroke="#BA000D" stroke-width="50"/>
<path d="M620 507V707" stroke="#BA000D" stroke-width="50"/>
<path d="M1181.7 320.2V484H1147.5L1141.5 463H1139.1C1133.9 471.4 1126.7 477.5 1117.5 481.3C1108.5 485.1 1098.9 487 1088.7 487C1071.1 487 1057 482.3 1046.4 472.9C1035.8 463.3 1030.5 448 1030.5 427V320.2H1075.2V415.9C1075.2 427.5 1077.3 436.3 1081.5 442.3C1085.7 448.3 1092.4 451.3 1101.6 451.3C1115.2 451.3 1124.5 446.7 1129.5 437.5C1134.5 428.1 1137 414.7 1137 397.3V320.2H1181.7ZM1251.07 256C1257.67 256 1263.37 257.6 1268.17 260.8C1272.97 263.8 1275.37 269.5 1275.37 277.9C1275.37 286.1 1272.97 291.8 1268.17 295C1263.37 298.2 1257.67 299.8 1251.07 299.8C1244.27 299.8 1238.47 298.2 1233.67 295C1229.07 291.8 1226.77 286.1 1226.77 277.9C1226.77 269.5 1229.07 263.8 1233.67 260.8C1238.47 257.6 1244.27 256 1251.07 256ZM1273.27 320.2V484H1228.57V320.2H1273.27ZM1433.97 484H1304.67V457.6L1380.57 354.4H1309.17V320.2H1431.27V349.3L1357.47 449.8H1433.97V484Z" fill="#343434"/>
<path d="M1111.5 714H1155V681H1111.5V635.1C1127.4 631.5 1143 627.3 1156.2 622.5L1133.1 594.6C1105.8 605.4 1062 615 1023 620.4C1026.9 628.2 1031.1 640.2 1032.6 648.3C1046.4 646.5 1060.8 644.4 1075.5 642V681H1022.1V714H1066.8C1055.1 747 1035.9 781.5 1015.5 803.1C1021.5 812.1 1030.2 826.2 1033.5 836.7C1049.4 819 1063.5 793.2 1075.5 765V871.8H1111.5V761.1C1121.4 775.2 1131 790.2 1136.7 800.4L1157.1 770.7C1150.5 762.6 1123.5 731.1 1111.5 719.1V714ZM1197.9 799.8V654.3H1245.9V799.8H1197.9ZM1162.8 620.1V857.7H1197.9V834H1245.9V855.6H1282.8V620.1H1162.8Z" fill="#BA000D"/>
<path d="M1343.42 708.23C1352.62 697.42 1359.98 686.61 1365.73 676.72C1375.39 685.92 1385.97 698.8 1392.18 708.23H1343.42ZM1350.78 651.42C1343.65 669.13 1330.31 690.75 1310.99 707.08C1316.28 710.53 1323.87 719.5 1327.32 724.79C1328.7 723.41 1330.31 722.03 1331.69 720.65V731H1351.93V747.79H1320.65V770.79H1351.93V830.82C1339.28 832.89 1327.78 834.73 1318.12 836.11L1323.18 860.95C1347.33 856.35 1378.84 849.91 1408.51 843.47L1406.67 820.93C1396.32 822.77 1385.74 824.84 1375.62 826.68V770.79H1404.14V747.79H1375.62V731H1399.31V708.23H1397.24L1411.96 690.52C1403.91 678.79 1386.89 662.46 1373.32 651.42H1350.78ZM1394.71 819.55C1398.16 810.12 1401.84 795.4 1405.98 782.52L1386.2 777.69C1384.82 788.5 1381.14 804.83 1378.15 814.95L1394.71 819.55ZM1322.95 783.9C1326.4 796.55 1329.62 813.11 1330.08 824.15L1348.48 819.09C1347.33 808.51 1344.11 792.18 1340.43 779.53L1322.95 783.9ZM1474.29 761.82V789.65H1461.64V761.82H1474.29ZM1492.23 810.81V740.89H1443.7V823.46H1461.64V810.81H1492.23ZM1493.61 700.87H1441.86V723.87H1493.61V700.87ZM1524.89 659.47H1412.19V865.78H1435.42V685H1500.74V836.34C1500.74 839.33 1499.82 840.48 1497.06 840.48C1494.3 840.48 1485.79 840.48 1477.74 840.02C1480.73 846.92 1483.95 858.88 1484.64 865.78C1499.36 866.01 1508.79 865.09 1515.92 860.72C1523.05 856.58 1524.89 848.99 1524.89 836.8V659.47ZM1619.42 679.48V691.21H1583.31V679.48H1619.42ZM1583.31 721.57V709.15H1619.42V721.57H1583.31ZM1645.18 741.35V659.93H1556.63V866.01H1583.31V741.35H1645.18ZM1641.5 791.95V774.7H1662.89V791.95H1641.5ZM1712.11 814.26V791.95H1686.81V774.7H1708.43V753.08H1597.34V774.7H1618.27V791.95H1594.12V814.26H1617.35C1615.05 825.99 1608.61 840.94 1593.89 850.14C1599.18 853.82 1607.46 860.95 1611.37 865.78C1630.92 852.44 1638.51 830.13 1640.81 814.26H1662.89V861.64H1686.81V814.26H1712.11ZM1686.35 722.03V709.15H1723.61V722.03H1686.35ZM1723.61 679.48V691.21H1686.35V679.48H1723.61ZM1750.52 659.93H1660.36V741.81H1723.61V833.81C1723.61 837.03 1722.46 838.41 1718.78 838.41C1715.33 838.64 1704.06 838.64 1693.71 838.18C1697.39 845.31 1701.07 857.73 1701.99 865.32C1719.47 865.32 1731.43 864.63 1739.71 860.03C1747.99 855.66 1750.52 848.07 1750.52 834.04V659.93ZM1858.39 792.18L1830.33 797.93V757.68H1852.64V735.6C1853.79 737.67 1854.71 739.51 1855.4 741.35C1880.93 725.25 1904.39 699.26 1917.27 677.64C1930.84 699.72 1956.14 725.94 1980.06 740.89C1983.97 733.07 1989.49 723.18 1994.55 716.74C1969.94 704.32 1944.87 678.33 1928.77 651.88H1903.93C1892.43 675.11 1867.82 703.86 1841.83 719.04C1844.82 722.49 1848.27 727.55 1851.03 732.61H1830.33V693.74H1857.47V668.44H1776.97V693.74H1803.88V732.61H1779.27V757.68H1803.88V803.22C1792.15 805.52 1781.57 807.59 1772.83 809.2L1779.27 835.19C1802.5 829.9 1832.4 822.77 1860.46 815.64L1858.39 792.18ZM1939.81 742.96C1923.94 765.73 1893.81 785.74 1865.29 796.55C1871.73 802.07 1878.63 810.81 1882.31 817.02C1912.9 802.53 1942.8 780.22 1962.35 752.85L1939.81 742.96ZM1917.73 713.52C1906.23 728.01 1883.92 742.5 1865.29 750.55C1871.73 755.38 1878.4 763.43 1882.31 768.72C1902.32 758.14 1924.4 741.35 1939.12 722.49L1917.73 713.52ZM1960.74 777C1941.19 811.5 1902.09 832.2 1855.4 842.32C1861.61 848.99 1868.28 858.65 1871.5 866.01C1921.87 851.98 1962.12 827.83 1985.12 786.89L1960.74 777Z" fill="#343434"/>
</svg>
