<svg width="1228" height="568" viewBox="0 0 1228 568" fill="none" xmlns="http://www.w3.org/2000/svg">
<path d="M118.68 65.2L95.32 57.52C93.88 62.96 90.52 70.32 88.12 74.32C80.12 88.08 66.2 108.72 38.2 125.84L56.12 139.12C71.8 128.4 85.72 114.32 96.44 100.4H141.4C138.84 112.4 129.56 131.6 118.68 144.08C104.76 159.92 87 173.84 54.2 183.6L73.08 200.56C103.16 188.72 122.52 174 137.72 155.44C152.12 137.52 161.24 116.24 165.56 102C166.84 98 169.08 93.52 170.84 90.48L154.52 80.4C150.84 81.52 145.56 82.32 140.6 82.32H108.44C108.6 82 108.76 81.84 108.92 81.52C110.84 78 115 70.8 118.68 65.2ZM196.92 127.76L207 147.92C226.68 142.16 247 133.52 263.48 124.88V176.08C263.48 183.12 263 193.2 262.36 197.04H287.64C286.52 193.04 286.2 183.12 286.2 176.08V111.44C301.72 101.2 317.08 88.72 329.24 76.72L311.96 60.24C301.56 72.88 283.32 88.88 266.84 99.12C249.08 110 225.56 120.4 196.92 127.76ZM465.036 56.88L452.396 62.16C455.276 66.48 458.476 72.08 461.196 77.2L459.276 75.76C456.076 76.88 449.676 77.68 442.796 77.68H386.316C381.516 77.68 371.756 77.2 367.436 76.56V99.28C370.796 99.12 379.596 98.16 386.316 98.16H440.556C437.036 109.52 427.276 125.36 416.716 137.36C401.676 154.16 376.876 173.68 351.116 183.28L367.596 200.56C389.516 190.32 410.796 173.52 427.756 155.76C442.796 170.16 457.676 186.64 468.076 201.04L486.316 185.04C476.876 173.52 457.516 153.04 441.676 139.28C452.396 124.88 461.356 107.92 466.796 95.44C468.236 92.08 471.116 87.28 472.396 85.36L468.716 82.64L477.836 78.8C475.116 73.2 469.196 62.96 465.036 56.88ZM485.196 51.28L472.556 56.56C476.876 62.48 482.156 71.92 485.516 78.48L498.156 73.04C495.276 67.44 489.516 57.36 485.196 51.28Z" fill="#343434"/>
<path d="M130.5 358H174V325H130.5V279.1C146.4 275.5 162 271.3 175.2 266.5L152.1 238.6C124.8 249.4 81 259 42 264.4C45.9 272.2 50.1 284.2 51.6 292.3C65.4 290.5 79.8 288.4 94.5 286V325H41.1V358H85.8C74.1 391 54.9 425.5 34.5 447.1C40.5 456.1 49.2 470.2 52.5 480.7C68.4 463 82.5 437.2 94.5 409V515.8H130.5V405.1C140.4 419.2 150 434.2 155.7 444.4L176.1 414.7C169.5 406.6 142.5 375.1 130.5 363.1V358ZM216.9 443.8V298.3H264.9V443.8H216.9ZM181.8 264.1V501.7H216.9V478H264.9V499.6H301.8V264.1H181.8Z" fill="#BA000D"/>
<path d="M362.42 352.23C371.62 341.42 378.98 330.61 384.73 320.72C394.39 329.92 404.97 342.8 411.18 352.23H362.42ZM369.78 295.42C362.65 313.13 349.31 334.75 329.99 351.08C335.28 354.53 342.87 363.5 346.32 368.79C347.7 367.41 349.31 366.03 350.69 364.65V375H370.93V391.79H339.65V414.79H370.93V474.82C358.28 476.89 346.78 478.73 337.12 480.11L342.18 504.95C366.33 500.35 397.84 493.91 427.51 487.47L425.67 464.93C415.32 466.77 404.74 468.84 394.62 470.68V414.79H423.14V391.79H394.62V375H418.31V352.23H416.24L430.96 334.52C422.91 322.79 405.89 306.46 392.32 295.42H369.78ZM413.71 463.55C417.16 454.12 420.84 439.4 424.98 426.52L405.2 421.69C403.82 432.5 400.14 448.83 397.15 458.95L413.71 463.55ZM341.95 427.9C345.4 440.55 348.62 457.11 349.08 468.15L367.48 463.09C366.33 452.51 363.11 436.18 359.43 423.53L341.95 427.9ZM493.29 405.82V433.65H480.64V405.82H493.29ZM511.23 454.81V384.89H462.7V467.46H480.64V454.81H511.23ZM512.61 344.87H460.86V367.87H512.61V344.87ZM543.89 303.47H431.19V509.78H454.42V329H519.74V480.34C519.74 483.33 518.82 484.48 516.06 484.48C513.3 484.48 504.79 484.48 496.74 484.02C499.73 490.92 502.95 502.88 503.64 509.78C518.36 510.01 527.79 509.09 534.92 504.72C542.05 500.58 543.89 492.99 543.89 480.8V303.47ZM638.42 323.48V335.21H602.31V323.48H638.42ZM602.31 365.57V353.15H638.42V365.57H602.31ZM664.18 385.35V303.93H575.63V510.01H602.31V385.35H664.18ZM660.5 435.95V418.7H681.89V435.95H660.5ZM731.11 458.26V435.95H705.81V418.7H727.43V397.08H616.34V418.7H637.27V435.95H613.12V458.26H636.35C634.05 469.99 627.61 484.94 612.89 494.14C618.18 497.82 626.46 504.95 630.37 509.78C649.92 496.44 657.51 474.13 659.81 458.26H681.89V505.64H705.81V458.26H731.11ZM705.35 366.03V353.15H742.61V366.03H705.35ZM742.61 323.48V335.21H705.35V323.48H742.61ZM769.52 303.93H679.36V385.81H742.61V477.81C742.61 481.03 741.46 482.41 737.78 482.41C734.33 482.64 723.06 482.64 712.71 482.18C716.39 489.31 720.07 501.73 720.99 509.32C738.47 509.32 750.43 508.63 758.71 504.03C766.99 499.66 769.52 492.07 769.52 478.04V303.93ZM877.39 436.18L849.33 441.93V401.68H871.64V379.6C872.79 381.67 873.71 383.51 874.4 385.35C899.93 369.25 923.39 343.26 936.27 321.64C949.84 343.72 975.14 369.94 999.06 384.89C1002.97 377.07 1008.49 367.18 1013.55 360.74C988.94 348.32 963.87 322.33 947.77 295.88H922.93C911.43 319.11 886.82 347.86 860.83 363.04C863.82 366.49 867.27 371.55 870.03 376.61H849.33V337.74H876.47V312.44H795.97V337.74H822.88V376.61H798.27V401.68H822.88V447.22C811.15 449.52 800.57 451.59 791.83 453.2L798.27 479.19C821.5 473.9 851.4 466.77 879.46 459.64L877.39 436.18ZM958.81 386.96C942.94 409.73 912.81 429.74 884.29 440.55C890.73 446.07 897.63 454.81 901.31 461.02C931.9 446.53 961.8 424.22 981.35 396.85L958.81 386.96ZM936.73 357.52C925.23 372.01 902.92 386.5 884.29 394.55C890.73 399.38 897.4 407.43 901.31 412.72C921.32 402.14 943.4 385.35 958.12 366.49L936.73 357.52ZM979.74 421C960.19 455.5 921.09 476.2 874.4 486.32C880.61 492.99 887.28 502.65 890.5 510.01C940.87 495.98 981.12 471.83 1004.12 430.89L979.74 421ZM1063.69 435.49H1036.32L1030.57 325.78H1069.44L1063.69 435.49ZM1030.11 473.9C1030.11 466.847 1032.03 461.94 1035.86 459.18C1039.69 456.267 1044.37 454.81 1049.89 454.81C1055.26 454.81 1059.86 456.267 1063.69 459.18C1067.52 461.94 1069.44 466.847 1069.44 473.9C1069.44 480.647 1067.52 485.553 1063.69 488.62C1059.86 491.533 1055.26 492.99 1049.89 492.99C1044.37 492.99 1039.69 491.533 1035.86 488.62C1032.03 485.553 1030.11 480.647 1030.11 473.9ZM1129.5 435.49H1102.13L1096.38 325.78H1135.25L1129.5 435.49ZM1095.92 473.9C1095.92 466.847 1097.84 461.94 1101.67 459.18C1105.5 456.267 1110.18 454.81 1115.7 454.81C1121.07 454.81 1125.67 456.267 1129.5 459.18C1133.33 461.94 1135.25 466.847 1135.25 473.9C1135.25 480.647 1133.33 485.553 1129.5 488.62C1125.67 491.533 1121.07 492.99 1115.7 492.99C1110.18 492.99 1105.5 491.533 1101.67 488.62C1097.84 485.553 1095.92 480.647 1095.92 473.9Z" fill="#343434"/>
</svg>
