<svg width="1700" height="600" viewBox="0 0 1700 600" fill="none" xmlns="http://www.w3.org/2000/svg">
<g clip-path="url(#clip0)">
<path d="M743.68 82.2L720.32 74.52C718.88 79.96 715.52 87.32 713.12 91.32C705.12 105.08 691.2 125.72 663.2 142.84L681.12 156.12C696.8 145.4 710.72 131.32 721.44 117.4H766.4C763.84 129.4 754.56 148.6 743.68 161.08C729.76 176.92 712 190.84 679.2 200.6L698.08 217.56C728.16 205.72 747.52 191 762.72 172.44C777.12 154.52 786.24 133.24 790.56 119C791.84 115 794.08 110.52 795.84 107.48L779.52 97.4C775.84 98.52 770.56 99.32 765.6 99.32H733.44C733.6 99 733.76 98.84 733.92 98.52C735.84 95 740 87.8 743.68 82.2ZM821.92 144.76L832 164.92C851.68 159.16 872 150.52 888.48 141.88V193.08C888.48 200.12 888 210.2 887.36 214.04H912.64C911.52 210.04 911.2 200.12 911.2 193.08V128.44C926.72 118.2 942.08 105.72 954.24 93.72L936.96 77.24C926.56 89.88 908.32 105.88 891.84 116.12C874.08 127 850.56 137.4 821.92 144.76ZM1090.04 73.88L1077.4 79.16C1080.28 83.48 1083.48 89.08 1086.2 94.2L1084.28 92.76C1081.08 93.88 1074.68 94.68 1067.8 94.68H1011.32C1006.52 94.68 996.756 94.2 992.436 93.56V116.28C995.796 116.12 1004.6 115.16 1011.32 115.16H1065.56C1062.04 126.52 1052.28 142.36 1041.72 154.36C1026.68 171.16 1001.88 190.68 976.116 200.28L992.596 217.56C1014.52 207.32 1035.8 190.52 1052.76 172.76C1067.8 187.16 1082.68 203.64 1093.08 218.04L1111.32 202.04C1101.88 190.52 1082.52 170.04 1066.68 156.28C1077.4 141.88 1086.36 124.92 1091.8 112.44C1093.24 109.08 1096.12 104.28 1097.4 102.36L1093.72 99.64L1102.84 95.8C1100.12 90.2 1094.2 79.96 1090.04 73.88ZM1110.2 68.28L1097.56 73.56C1101.88 79.48 1107.16 88.92 1110.52 95.48L1123.16 90.04C1120.28 84.44 1114.52 74.36 1110.2 68.28Z" fill="#343434"/>
<path d="M755.5 375H799V342H755.5V296.1C771.4 292.5 787 288.3 800.2 283.5L777.1 255.6C749.8 266.4 706 276 667 281.4C670.9 289.2 675.1 301.2 676.6 309.3C690.4 307.5 704.8 305.4 719.5 303V342H666.1V375H710.8C699.1 408 679.9 442.5 659.5 464.1C665.5 473.1 674.2 487.2 677.5 497.7C693.4 480 707.5 454.2 719.5 426V532.8H755.5V422.1C765.4 436.2 775 451.2 780.7 461.4L801.1 431.7C794.5 423.6 767.5 392.1 755.5 380.1V375ZM841.9 460.8V315.3H889.9V460.8H841.9ZM806.8 281.1V518.7H841.9V495H889.9V516.6H926.8V281.1H806.8Z" fill="#BA000D"/>
<path d="M987.42 369.23C996.62 358.42 1003.98 347.61 1009.73 337.72C1019.39 346.92 1029.97 359.8 1036.18 369.23H987.42ZM994.78 312.42C987.65 330.13 974.31 351.75 954.99 368.08C960.28 371.53 967.87 380.5 971.32 385.79C972.7 384.41 974.31 383.03 975.69 381.65V392H995.93V408.79H964.65V431.79H995.93V491.82C983.28 493.89 971.78 495.73 962.12 497.11L967.18 521.95C991.33 517.35 1022.84 510.91 1052.51 504.47L1050.67 481.93C1040.32 483.77 1029.74 485.84 1019.62 487.68V431.79H1048.14V408.79H1019.62V392H1043.31V369.23H1041.24L1055.96 351.52C1047.91 339.79 1030.89 323.46 1017.32 312.42H994.78ZM1038.71 480.55C1042.16 471.12 1045.84 456.4 1049.98 443.52L1030.2 438.69C1028.82 449.5 1025.14 465.83 1022.15 475.95L1038.71 480.55ZM966.95 444.9C970.4 457.55 973.62 474.11 974.08 485.15L992.48 480.09C991.33 469.51 988.11 453.18 984.43 440.53L966.95 444.9ZM1118.29 422.82V450.65H1105.64V422.82H1118.29ZM1136.23 471.81V401.89H1087.7V484.46H1105.64V471.81H1136.23ZM1137.61 361.87H1085.86V384.87H1137.61V361.87ZM1168.89 320.47H1056.19V526.78H1079.42V346H1144.74V497.34C1144.74 500.33 1143.82 501.48 1141.06 501.48C1138.3 501.48 1129.79 501.48 1121.74 501.02C1124.73 507.92 1127.95 519.88 1128.64 526.78C1143.36 527.01 1152.79 526.09 1159.92 521.72C1167.05 517.58 1168.89 509.99 1168.89 497.8V320.47ZM1263.42 340.48V352.21H1227.31V340.48H1263.42ZM1227.31 382.57V370.15H1263.42V382.57H1227.31ZM1289.18 402.35V320.93H1200.63V527.01H1227.31V402.35H1289.18ZM1285.5 452.95V435.7H1306.89V452.95H1285.5ZM1356.11 475.26V452.95H1330.81V435.7H1352.43V414.08H1241.34V435.7H1262.27V452.95H1238.12V475.26H1261.35C1259.05 486.99 1252.61 501.94 1237.89 511.14C1243.18 514.82 1251.46 521.95 1255.37 526.78C1274.92 513.44 1282.51 491.13 1284.81 475.26H1306.89V522.64H1330.81V475.26H1356.11ZM1330.35 383.03V370.15H1367.61V383.03H1330.35ZM1367.61 340.48V352.21H1330.35V340.48H1367.61ZM1394.52 320.93H1304.36V402.81H1367.61V494.81C1367.61 498.03 1366.46 499.41 1362.78 499.41C1359.33 499.64 1348.06 499.64 1337.71 499.18C1341.39 506.31 1345.07 518.73 1345.99 526.32C1363.47 526.32 1375.43 525.63 1383.71 521.03C1391.99 516.66 1394.52 509.07 1394.52 495.04V320.93ZM1502.39 453.18L1474.33 458.93V418.68H1496.64V396.6C1497.79 398.67 1498.71 400.51 1499.4 402.35C1524.93 386.25 1548.39 360.26 1561.27 338.64C1574.84 360.72 1600.14 386.94 1624.06 401.89C1627.97 394.07 1633.49 384.18 1638.55 377.74C1613.94 365.32 1588.87 339.33 1572.77 312.88H1547.93C1536.43 336.11 1511.82 364.86 1485.83 380.04C1488.82 383.49 1492.27 388.55 1495.03 393.61H1474.33V354.74H1501.47V329.44H1420.97V354.74H1447.88V393.61H1423.27V418.68H1447.88V464.22C1436.15 466.52 1425.57 468.59 1416.83 470.2L1423.27 496.19C1446.5 490.9 1476.4 483.77 1504.46 476.64L1502.39 453.18ZM1583.81 403.96C1567.94 426.73 1537.81 446.74 1509.29 457.55C1515.73 463.07 1522.63 471.81 1526.31 478.02C1556.9 463.53 1586.8 441.22 1606.35 413.85L1583.81 403.96ZM1561.73 374.52C1550.23 389.01 1527.92 403.5 1509.29 411.55C1515.73 416.38 1522.4 424.43 1526.31 429.72C1546.32 419.14 1568.4 402.35 1583.12 383.49L1561.73 374.52ZM1604.74 438C1585.19 472.5 1546.09 493.2 1499.4 503.32C1505.61 509.99 1512.28 519.65 1515.5 527.01C1565.87 512.98 1606.12 488.83 1629.12 447.89L1604.74 438Z" fill="#343434"/>
<circle cx="322" cy="300" r="250" stroke="#BA000D" stroke-width="50"/>
<rect x="247" y="225" width="150" height="150" stroke="#BA000D" stroke-width="50"/>
</g>
<defs>
<clipPath id="clip0">
<rect width="1700" height="600" fill="white"/>
</clipPath>
</defs>
</svg>
